<svg width="116" height="116" viewBox="0 0 116 116" fill="none" xmlns="http://www.w3.org/2000/svg">
<path d="M113.327 41.8019C116.243 38.8548 116.222 34.0978 113.28 31.1769C110.338 28.256 105.589 28.2772 102.673 31.2243L85.2 48.8847C78.1086 56.0521 73.2282 60.9687 69.093 64.2955C65.076 67.5271 62.4958 68.6357 60.185 68.9308C58.7341 69.116 57.2659 69.116 55.815 68.9308C53.5042 68.6357 50.924 67.5271 46.9071 64.2955C42.7718 60.9687 37.8914 56.0521 30.8 48.8847L13.3269 31.2243C10.4111 28.2772 5.66238 28.256 2.72041 31.1769C-0.221558 34.0978 -0.242744 38.8548 2.67309 41.8019L20.4609 59.7804C27.1604 66.552 32.6359 72.0863 37.5146 76.0112C42.5879 80.0926 51.8189 85.9512 58 86.7405C60.7103 87.0865 58.374 87.0865 61.0843 86.7405C67.2654 85.9512 73.4122 80.0926 78.4854 76.0112C83.3641 72.0863 88.8396 66.552 95.539 59.7805L113.327 41.8019Z" fill="#202020"/>
</svg>
