<svg width="21" height="19" viewBox="0 0 21 19" fill="none" xmlns="http://www.w3.org/2000/svg">
<path d="M3.78421 8.61989V11.0237C3.78421 12.7794 3.78421 13.6572 4.01505 14.3677C4.48158 15.8035 5.60729 16.9292 7.04312 17.3957C7.75355 17.6266 8.6314 17.6266 10.3871 17.6266C12.1428 17.6266 13.0206 17.6266 13.731 17.3957C15.1669 16.9292 16.2926 15.8035 16.7591 14.3677C16.99 13.6572 16.99 12.7794 16.99 11.0237V8.62299M16.99 8.62299C16.087 8.98895 14.9715 9.38646 13.6441 9.86056L11.6562 10.5705C11.028 10.7949 10.714 10.907 10.3872 10.907C10.0604 10.907 9.74632 10.7949 9.11814 10.5705L7.13031 9.86056C2.97931 8.37804 0.903809 7.63678 0.903809 6.30731C0.903809 4.97784 2.97931 4.23658 7.13031 2.75406L9.11814 2.04411C9.74632 1.81976 10.0604 1.70758 10.3872 1.70758C10.714 1.70758 11.028 1.81976 11.6562 2.04411L13.6441 2.75406C17.7951 4.23658 19.8706 4.97784 19.8706 6.30731C19.8706 7.21163 18.9106 7.84456 16.99 8.62299Z" stroke="#202020" stroke-width="1.5"/>
<path fill-rule="evenodd" clip-rule="evenodd" d="M6.8333 2.10882L8.88013 1.3778C8.91134 1.36666 8.94216 1.35562 8.97261 1.34471C9.51008 1.15225 9.93509 1.00006 10.3871 1.00006C10.8391 1.00006 11.2642 1.15225 11.8016 1.34472C11.8321 1.35562 11.8629 1.36666 11.8941 1.3778L13.9409 2.10882C15.9666 2.83228 17.5587 3.40087 18.6389 3.95965C19.6829 4.49971 20.5779 5.19391 20.5779 6.30724C20.5779 7.42057 19.6829 8.11476 18.6389 8.65483C17.5587 9.2136 15.9666 9.78219 13.9409 10.5057L11.8941 11.2367C11.8629 11.2478 11.8321 11.2589 11.8016 11.2698C11.2642 11.4622 10.8391 11.6144 10.3871 11.6144C9.93509 11.6144 9.51008 11.4622 8.97261 11.2698C8.94216 11.2589 8.91134 11.2478 8.88013 11.2367L6.83329 10.5057C4.80759 9.78219 3.21553 9.2136 2.13532 8.65483C1.09128 8.11476 0.196289 7.42057 0.196289 6.30724C0.196289 5.19391 1.09129 4.49971 2.13532 3.95965C3.21553 3.40087 4.80759 2.83228 6.8333 2.10882ZM2.78541 5.21637C1.75394 5.74993 1.61119 6.0911 1.61119 6.30724C1.61119 6.52338 1.75394 6.86455 2.78541 7.39811C3.77023 7.90755 5.27099 8.44525 7.36818 9.19426L9.35602 9.90421C10.0305 10.1451 10.2112 10.1995 10.3871 10.1995C10.563 10.1995 10.7437 10.1451 11.4182 9.90421L13.406 9.19426C15.5032 8.44525 17.004 7.90755 17.9888 7.39811C19.0203 6.86455 19.163 6.52338 19.163 6.30724C19.163 6.0911 19.0203 5.74993 17.9888 5.21636C17.004 4.70693 15.5032 4.16923 13.406 3.42022L11.4182 2.71027C10.7437 2.46938 10.563 2.41496 10.3871 2.41496C10.2112 2.41496 10.0305 2.46938 9.35602 2.71027L7.36818 3.42022C5.27099 4.16923 3.77023 4.70693 2.78541 5.21637ZM0.954341 13.6176C0.563626 13.6176 0.196289 13.3119 0.196289 12.9212V6.30724C0.196289 5.91652 0.563626 5.59979 0.954341 5.59979C1.34505 5.59979 1.61119 5.91652 1.61119 6.30724L1.66179 7.46421V12.9101C1.66179 13.3008 1.34505 13.6176 0.954341 13.6176Z" fill="#202020"/>
</svg>
