<svg width="49" height="40" viewBox="0 0 49 40" fill="none" xmlns="http://www.w3.org/2000/svg">
<path fill-rule="evenodd" clip-rule="evenodd" d="M41.65 0.799805C45.7093 0.799805 49 4.09051 49 8.14981V32.6498C49 36.7091 45.7093 39.9998 41.65 39.9998H7.35C3.29071 39.9998 0 36.7091 0 32.6498V8.14981C0 4.09051 3.29071 0.799805 7.35 0.799805H41.65ZM46 7L26.2697 25.0601C25.3409 25.9102 23.9922 25.981 22.9934 25.2726L22.7303 25.0601L3 7.00281V34.1889C3 35.7414 4.20323 37 5.6875 37H43.3125C44.7968 37 46 35.7414 46 34.1889V7ZM44 4H5L24.503 22L44 4Z" fill="#202020"/>
</svg>
