<svg width="34" height="34" viewBox="0 0 34 34" fill="none" xmlns="http://www.w3.org/2000/svg">
<path fill-rule="evenodd" clip-rule="evenodd" d="M15.3 0H18.7C21.4161 0 23.6362 2.12316 23.7913 4.80034L23.8 5.1V6.8H28.9C31.7167 6.8 34 9.08335 34 11.9V28.9C34 31.7167 31.7167 34 28.9 34H5.1C2.28335 34 0 31.7167 0 28.9V11.9C0 9.08335 2.28335 6.8 5.1 6.8H10.2V5.1C10.2 2.38394 12.3232 0.163777 15.0003 0.00865758L15.3 0H18.7H15.3ZM32 24H2V28.8047C2 29.9027 4.3982 31.9526 5.43373 31.9526H28.0241C29.8525 32.3717 32 29.9027 32 28.8047V24ZM30.2755 9.50538H3.72446C2.67705 9.50538 1.82796 10.3783 1.82796 11.4552V21.2043H32.172V11.4552C32.172 10.3783 31.3229 9.50538 30.2755 9.50538ZM19.4677 1.82796H14.5323C13.2667 1.82796 12.2237 2.81589 12.0811 4.08865L12.0645 4.3871V6.94624H21.9355V4.3871C21.9355 3.07468 20.9828 1.993 19.7555 1.84517L19.4677 1.82796Z" fill="#202020"/>
</svg>
