<svg width="23" height="23" viewBox="0 0 23 23" fill="none" xmlns="http://www.w3.org/2000/svg">
<path d="M14.2808 19.7007L13.6906 19.2378L13.6906 19.2378L14.2808 19.7007ZM8.71913 19.7007L8.12896 20.1635L8.71913 19.7007ZM11.5 22.0057L11.5 21.2557L11.5 22.0057ZM18.75 9.60878C18.75 10.8353 18.1104 12.4765 17.1038 14.2562C16.1137 16.0065 14.8342 17.7795 13.6906 19.2378L14.8709 20.1635C16.0371 18.6764 17.3672 16.8371 18.4094 14.9946C19.4349 13.1816 20.25 11.2495 20.25 9.60878H18.75ZM9.30931 19.2378C8.1657 17.7795 6.88619 16.0065 5.89615 14.2562C4.88951 12.4765 4.24988 10.8353 4.24988 9.60878H2.74988C2.74988 11.2495 3.56499 13.1816 4.59053 14.9946C5.63268 16.8371 6.96279 18.6764 8.12896 20.1635L9.30931 19.2378ZM4.24988 9.60878C4.24988 5.21575 7.54669 1.75 11.5 1.75V0.25C6.61657 0.25 2.74988 4.49281 2.74988 9.60878H4.24988ZM11.5 1.75C15.4532 1.75 18.75 5.21575 18.75 9.60878H20.25C20.25 4.49281 16.3833 0.25 11.5 0.25V1.75ZM13.6906 19.2378C13.0716 20.0272 12.6641 20.5428 12.2991 20.8743C11.9663 21.1766 11.7441 21.2557 11.5 21.2557L11.5 22.7557C12.229 22.7557 12.7947 22.4506 13.3077 21.9846C13.7886 21.5477 14.2849 20.9108 14.8709 20.1635L13.6906 19.2378ZM8.12896 20.1635C8.71504 20.9108 9.2113 21.5477 9.69218 21.9846C10.2052 22.4506 10.7709 22.7557 11.5 22.7557L11.5 21.2557C11.2558 21.2557 11.0336 21.1766 10.7008 20.8743C10.3358 20.5428 9.92828 20.0272 9.30931 19.2378L8.12896 20.1635ZM7.74992 10.0001C7.74992 12.0712 9.42887 13.7501 11.5 13.7501V12.2501C10.2573 12.2501 9.24992 11.2427 9.24992 10.0001H7.74992ZM11.5 13.7501C13.571 13.7501 15.25 12.0712 15.25 10.0001H13.75C13.75 11.2427 12.7426 12.2501 11.5 12.2501V13.7501ZM15.25 10.0001C15.25 7.929 13.571 6.25006 11.5 6.25006V7.75006C12.7426 7.75006 13.75 8.75743 13.75 10.0001H15.25ZM11.5 6.25006C9.42887 6.25006 7.74992 7.929 7.74992 10.0001H9.24992C9.24992 8.75743 10.2573 7.75006 11.5 7.75006V6.25006Z" fill="#202020"/>
</svg>
