<svg width="41" height="41" viewBox="0 0 41 41" fill="none" xmlns="http://www.w3.org/2000/svg">
<g clip-path="url(#clip0_58_86)">
<path d="M18.7833 3.83334H15.45C7.11666 3.83334 3.78333 7.16667 3.78333 15.5V25.5C3.78333 33.8333 7.11666 37.1667 15.45 37.1667H25.45C33.7833 37.1667 37.1167 33.8333 37.1167 25.5V22.1667" stroke="#202020" stroke-width="2.5" stroke-linecap="round" stroke-linejoin="round"/>
<path d="M36.9666 6.43333C34.9166 11.55 29.7666 18.5167 25.4666 21.9667L22.8333 24.0667C22.4999 24.3167 22.1666 24.5167 21.7833 24.6667C21.7833 24.4167 21.7666 24.1667 21.7333 23.9C21.5833 22.7833 21.0833 21.7333 20.1833 20.85C19.2666 19.9333 18.1666 19.4167 17.0333 19.2667C16.7666 19.25 16.4999 19.2333 16.2333 19.25C16.3833 18.8333 16.5999 18.45 16.8833 18.1333L18.9833 15.5C22.4333 11.2 29.4166 6.01666 34.5166 3.96666C35.2999 3.66666 36.0666 3.9 36.5499 4.38333C37.0499 4.88333 37.2833 5.65 36.9666 6.43333Z" stroke="#202020" stroke-width="2.5" stroke-linecap="round" stroke-linejoin="round"/>
<path d="M21.8 24.65C21.8 26.1167 21.2333 27.5167 20.1833 28.5833C19.3666 29.4 18.2666 29.9667 16.95 30.1333L13.6666 30.4833C11.8833 30.6833 10.35 29.1667 10.55 27.35L10.9 24.0667C11.2166 21.15 13.65 19.2833 16.25 19.2333C16.5166 19.2167 16.7833 19.2333 17.05 19.25C18.1833 19.4 19.2833 19.9167 20.2 20.8333C21.1 21.7333 21.6 22.7667 21.75 23.8833C21.7833 24.15 21.8 24.4167 21.8 24.65Z" stroke="#202020" stroke-width="2.5" stroke-linecap="round" stroke-linejoin="round"/>
<path d="M26.8667 20.4667C26.8667 16.9833 24.05 14.15 20.55 14.15" stroke="#202020" stroke-width="2.5" stroke-linecap="round" stroke-linejoin="round"/>
</g>
<defs>
<clipPath id="clip0_58_86">
<rect width="40" height="40" fill="white" transform="translate(0.5 0.5)"/>
</clipPath>
</defs>
</svg>
